<svg width="28" height="13" viewBox="0 0 28 13" fill="none" xmlns="http://www.w3.org/2000/svg">
<path opacity="0.35" d="M4.04944 0.5H21.0494C22.9824 0.5 24.5494 2.067 24.5494 4V9C24.5494 10.933 22.9824 12.5 21.0494 12.5H4.04944C2.11644 12.5 0.549438 10.933 0.549438 9V4C0.549438 2.067 2.11644 0.5 4.04944 0.5Z" stroke="black"/>
<path opacity="0.4" d="M26.0494 5V9.22034C26.8985 8.86291 27.4506 8.0314 27.4506 7.11017C27.4506 6.18894 26.8985 5.35744 26.0494 5Z" fill="black"/>
<path d="M2.04944 4C2.04944 2.89543 2.94487 2 4.04944 2H21.0494C22.154 2 23.0494 2.89543 23.0494 4V9C23.0494 10.1046 22.154 11 21.0494 11H4.04944C2.94487 11 2.04944 10.1046 2.04944 9V4Z" fill="black"/>
</svg>
