<svg width="139" height="88" viewBox="0 0 139 88" fill="none" xmlns="http://www.w3.org/2000/svg">
<path fill-rule="evenodd" clip-rule="evenodd" d="M138.798 8.30824C138.798 3.75932 135.366 0.0716858 131.133 0.0716858H123.468C119.235 0.0716858 115.803 3.75932 115.803 8.30824V79.6917C115.803 84.2407 119.235 87.9283 123.468 87.9283H131.133C135.366 87.9283 138.798 84.2407 138.798 79.6917V8.30824ZM85.3775 17.643H93.0424C97.2756 17.643 100.707 21.4191 100.707 26.0772V79.4941C100.707 84.1522 97.2756 87.9283 93.0424 87.9283H85.3775C81.1444 87.9283 77.7127 84.1522 77.7127 79.4941V26.0772C77.7127 21.4191 81.1444 17.643 85.3775 17.643ZM54.2503 36.6785H46.5854C42.3522 36.6785 38.9206 40.5028 38.9206 45.2202V79.3866C38.9206 84.104 42.3522 87.9282 46.5854 87.9282H54.2503C58.4835 87.9282 61.9151 84.104 61.9151 79.3866V45.2202C61.9151 40.5028 58.4835 36.6785 54.2503 36.6785ZM16.1599 54.2499H8.49506C4.26187 54.2499 0.8302 58.0195 0.8302 62.6695V79.5087C0.8302 84.1587 4.26187 87.9283 8.49506 87.9283H16.1599C20.3931 87.9283 23.8248 84.1587 23.8248 79.5087V62.6695C23.8248 58.0195 20.3931 54.2499 16.1599 54.2499Z" fill="black"/>
</svg>
