<svg width="124" height="90" viewBox="0 0 124 90" fill="none" xmlns="http://www.w3.org/2000/svg">
<path fill-rule="evenodd" clip-rule="evenodd" d="M61.69 18.4278C79.5619 18.4286 96.7504 25.0545 109.703 36.9361C110.678 37.8534 112.237 37.8418 113.198 36.9101L122.521 27.8311C123.008 27.3585 123.279 26.7185 123.275 26.0525C123.271 25.3865 122.992 24.7495 122.5 24.2825C88.5037 -7.15336 34.8709 -7.15336 0.874735 24.2825C0.382278 24.7492 0.102864 25.3859 0.0983228 26.0519C0.0937818 26.7179 0.364488 27.3582 0.85054 27.8311L10.1767 36.9101C11.1367 37.8432 12.6969 37.8548 13.6717 36.9361C26.6259 25.0537 43.8163 18.4278 61.69 18.4278ZM61.6659 48.7539C71.4193 48.7533 80.8247 52.4305 88.0544 59.0711C89.0323 60.0136 90.5727 59.9932 91.5259 59.0251L100.776 49.5448C101.263 49.0475 101.533 48.373 101.526 47.672C101.519 46.971 101.236 46.3021 100.739 45.815C78.7226 25.0419 44.6278 25.0419 22.6117 45.815C22.1144 46.3021 21.8307 46.9713 21.8242 47.6725C21.8176 48.3737 22.0889 49.0483 22.577 49.5448L31.8245 59.0251C32.7777 59.9932 34.3181 60.0136 35.296 59.0711C42.521 52.4349 51.9189 48.758 61.6659 48.7539ZM79.8059 68.8278C79.8197 69.5848 79.5534 70.3147 79.0698 70.845L63.4287 88.4842C62.9702 89.0026 62.3451 89.2944 61.6928 89.2944C61.0406 89.2944 60.4155 89.0026 59.957 88.4842L44.3133 70.845C43.83 70.3143 43.5642 69.5842 43.5785 68.8272C43.5928 68.0701 43.8861 67.3533 44.389 66.8458C54.378 57.4045 69.0077 57.4045 78.9967 66.8458C79.4993 67.3537 79.792 68.0708 79.8059 68.8278Z" fill="black"/>
</svg>
